<svg width="554" height="183" viewBox="0 0 554 183" fill="none" xmlns="http://www.w3.org/2000/svg">
<path d="M1.36899 56.0081C6.5202 53.9184 11.3536 51.981 15.8693 50.1957C20.4284 48.4076 25.2327 46.6907 30.2822 45.0449C35.3287 43.3556 40.1764 41.9637 44.8252 40.8691C48.3974 40.0206 52.0768 39.471 55.8634 39.2203C62.1745 38.8025 66.3208 38.7029 68.3025 38.9214C71.2996 39.2913 74.1457 40.0209 76.8407 41.1102C79.5793 42.1967 82.042 43.7385 84.2288 45.7358C86.4563 47.6867 88.318 50.0552 89.8139 52.8414C90.414 53.982 90.7573 55.2051 90.8437 56.5109C91.1664 61.3856 88.8873 67.5692 84.0063 75.0616C79.1689 82.5512 74.2274 89.1296 69.1819 94.7969C64.1799 100.461 60.4278 104.535 57.9255 107.017L72.4044 147.435L56.1161 160.907L20.4832 77.2998C20.3962 77.3055 20.0101 77.7464 19.3249 78.6223C18.6397 79.4983 17.7324 80.6512 16.6031 82.0812C15.5144 83.4647 14.8278 84.3189 14.5433 84.6437C14.4127 84.6524 13.9155 83.7454 13.0517 81.9228C12.2314 80.0974 11.1024 77.5711 9.66472 74.3439C8.26769 71.0703 6.69528 67.4586 4.94747 63.5088C3.15326 59.5183 1.96044 57.0181 1.36899 56.0081ZM44.8111 71.3614L51.4396 90.2666C53.9566 87.3459 57.0602 83.3809 60.7504 78.3717C64.4406 73.3624 66.2151 69.7914 66.0739 67.6587C66.0191 66.8318 65.6392 66.376 64.9342 66.2916C62.9468 65.986 60.9955 65.8966 59.0804 66.0234C53.3352 66.4037 48.5788 68.1831 44.8111 71.3614ZM141.637 79.902C144.837 81.3513 147.488 83.4272 149.591 86.1295C151.734 88.7854 153.357 91.8473 154.461 95.3151C155.606 98.7366 156.303 102.341 156.554 106.127C156.761 109.261 156.7 112.303 156.371 115.254C156.085 118.202 155.588 120.923 154.879 123.418C154.17 125.913 153.284 128.048 152.221 129.824C149.75 134.096 147.045 137.816 144.107 140.984C141.17 144.151 138.129 146.756 134.986 148.8C131.84 150.801 128.683 152.321 125.517 153.362C122.398 154.442 119.271 155.087 116.137 155.294C112.438 155.539 108.873 155.185 105.444 154.232C102.061 153.319 99.1327 152.005 96.6585 150.289C92.5716 147.324 89.2599 143.194 86.7235 137.897C84.1843 132.557 82.7129 126.841 82.3095 120.747C81.6151 110.258 84.0796 101.592 89.7031 94.7498C94.5166 88.8793 99.5949 84.3683 104.938 81.2168C110.278 78.0218 115.843 76.2326 121.632 75.8494C125.027 75.6247 128.32 75.8438 131.511 76.5068C134.7 77.1263 138.075 78.2581 141.637 79.902ZM138.512 91.1252C137.991 94.482 136.573 97.5048 134.26 100.193C131.989 102.879 129.679 104.3 127.329 104.455C126.154 104.533 125.089 104.298 124.134 103.749C122.76 102.791 121.986 101.006 121.813 98.3945C121.68 96.3924 122.202 94.3688 123.378 92.3237C124.598 90.2758 126.606 88.591 129.404 87.2691C126.531 87.4593 123.782 88.1878 121.155 89.4545C118.572 90.7184 116.381 92.2842 114.581 94.152C112.779 95.9762 111.362 98.0154 110.331 100.269C109.34 102.477 108.917 104.669 109.061 106.845C109.329 110.893 111.414 113.99 115.315 116.136C118.944 118.125 122.326 119.016 125.459 118.809C128.55 118.604 131.224 117.4 133.482 115.196C135.738 112.948 137.39 110.172 138.439 106.867C139.485 103.52 139.903 100.257 139.693 97.0797C139.549 94.9035 139.155 92.9186 138.512 91.1252ZM141.381 41.3621L173.626 25.2604L175.044 46.6744L191.431 26.7702L215.13 44.0207L186.151 92.627L256.407 139.582L259.707 165.658L189.366 133.266L193.121 165.214L162.083 167.859L148.7 54.8446L139.245 57.6344L141.381 41.3621ZM285.274 105.147L302.266 123.104C301.246 126.843 298.464 130.393 293.922 133.754C289.423 137.112 283.967 139.878 277.553 142.051C271.186 144.265 264.76 145.586 258.275 146.015C252.53 146.396 247.344 145.974 242.716 144.75C238.132 143.524 234.519 141.446 231.877 138.517C227.304 133.487 224.744 126.837 224.196 118.567C223.764 112.038 224.514 105.541 226.447 99.0741C228.42 92.561 230.65 87.9544 233.138 85.2542C236.117 82.0407 239.389 79.3104 242.956 77.0633C246.567 74.8134 250.341 73.0554 254.279 71.7892C258.217 70.5231 262.297 69.7502 266.519 69.4707C272.047 69.1048 277.35 69.6498 282.43 71.1059C287.551 72.5155 292.094 74.7721 296.059 77.8757L263.047 123.011C266.225 122.801 269.184 121.949 271.927 120.456C274.71 118.917 277.218 116.849 279.451 114.253C281.68 111.614 283.622 108.578 285.274 105.147ZM266.183 91.1321C263.978 90.1851 261.766 89.7852 259.546 89.9321C257.196 90.0877 254.942 90.7177 252.786 91.8222C250.673 92.9238 249.203 94.1578 248.375 95.524C245.907 99.1846 244.812 103.104 245.088 107.282C245.189 108.806 245.438 110.254 245.835 111.626C246.232 112.999 246.881 114.88 247.782 117.268L266.183 91.1321ZM229.509 46.2818L263.032 24.7186L279.504 46.7098L237.795 57.5364L229.509 46.2818ZM345.667 47.7066C341.971 46.6836 339.057 46.2426 336.924 46.3838C333.964 46.5798 331.178 47.7478 328.566 49.8879L335.764 109.083C342.909 105.419 347.598 101.961 349.831 98.709C352.104 95.411 353.434 92.7219 353.821 90.6417C354.193 89.6553 354.471 87.2544 354.656 83.439C354.884 79.6206 354.844 75.3829 354.535 70.7258C354.132 64.6324 353.222 59.4686 351.805 55.2346C350.429 50.9542 348.383 48.4449 345.667 47.7066ZM370.547 34.2564C372.864 38.2123 374.842 42.3436 376.482 46.6502C378.163 50.9105 379.452 55.1967 380.35 59.5088C381.291 63.818 381.901 68.0836 382.181 72.3054C382.682 79.8787 382.14 87.215 380.556 94.3144C379.015 101.411 376.534 107.848 373.113 113.627C369.689 119.361 365.393 124.127 360.224 127.922C355.098 131.715 349.296 134.219 342.819 135.435L315.915 142.069L301.216 58.7148C300.912 58.735 299.922 59.959 298.246 62.3868C296.571 64.8146 295.581 66.0386 295.276 66.0588C294.276 65.4693 293.304 63.6757 292.363 60.678C291.465 57.6774 290.128 53.0009 288.352 46.6486C286.62 40.2934 285.381 36.441 284.636 35.0915C294.474 31.1615 303.767 27.9016 312.513 25.3117C321.257 22.6782 329.459 21.1079 337.119 20.6008C353.571 19.5116 364.714 24.0635 370.547 34.2564ZM439.09 94.9639L456.082 112.921C455.061 116.66 452.28 120.211 447.738 123.571C443.239 126.929 437.782 129.695 431.369 131.868C425.002 134.082 418.576 135.403 412.091 135.833C406.346 136.213 401.159 135.791 396.532 134.568C391.948 133.341 388.335 131.263 385.693 128.334C381.12 123.304 378.559 116.654 378.012 108.384C377.58 101.856 378.33 95.3579 380.262 88.8912C382.235 82.3782 384.466 77.7716 386.954 75.0714C389.932 71.8578 393.205 69.1275 396.772 66.8805C400.383 64.6306 404.157 62.8725 408.095 61.6064C412.033 60.3402 416.113 59.5674 420.335 59.2879C425.862 58.922 431.166 59.467 436.246 60.9231C441.367 62.3327 445.909 64.5893 449.874 67.6929L416.863 112.829C420.04 112.618 423 111.767 425.743 110.273C428.526 108.734 431.034 106.666 433.266 104.071C435.496 101.431 437.437 98.3956 439.09 94.9639ZM419.998 80.9492C417.794 80.0023 415.581 79.6023 413.362 79.7493C411.011 79.9049 408.758 80.5349 406.601 81.6394C404.489 82.741 403.018 83.975 402.191 85.3412C399.723 89.0018 398.627 92.9213 398.904 97.0996C399.005 98.623 399.253 100.071 399.65 101.444C400.047 102.816 400.696 104.697 401.598 107.085L419.998 80.9492ZM493.759 105.574L471.493 150.588L437.874 153.863L479.366 75.3797L436.007 12.7428L472.787 15.6193L492.994 45.4943L508.564 13.2508L544.303 9.31108L510.594 75.6074L548.734 140.623L511.215 134.516L493.759 105.574Z" fill="#FFCC00"/>
<path d="M1.36899 56.0081L-0.886446 50.4481L-7.31321 53.0552L-3.8086 59.04L1.36899 56.0081ZM15.8693 50.1957L13.6785 44.61L13.6709 44.613L13.6633 44.616L15.8693 50.1957ZM30.2822 45.0449L32.1415 50.7496L32.1641 50.7422L32.1867 50.7346L30.2822 45.0449ZM44.8252 40.8691L46.2004 46.7094L46.2118 46.7067L44.8252 40.8691ZM68.3025 38.9214L69.0374 32.9666L68.9988 32.9618L68.9602 32.9576L68.3025 38.9214ZM76.8407 41.1102L74.5923 46.673L74.6102 46.6802L74.6282 46.6874L76.8407 41.1102ZM84.2288 45.7358L80.1826 50.1661L80.2287 50.2083L80.2757 50.2494L84.2288 45.7358ZM89.8139 52.8414L95.1238 50.0477L95.1121 50.0254L95.1002 50.0032L89.8139 52.8414ZM84.0063 75.0616L78.979 71.7866L78.9726 71.7964L78.9662 71.8063L84.0063 75.0616ZM69.1819 94.7969L64.7006 90.8072L64.6925 90.8163L64.6844 90.8254L69.1819 94.7969ZM57.9255 107.017L53.6997 102.758L50.9895 105.447L52.277 109.041L57.9255 107.017ZM72.4044 147.435L76.2284 152.059L79.4727 149.375L78.0529 145.412L72.4044 147.435ZM56.1161 160.907L50.5965 163.259L53.7473 170.652L59.9401 165.53L56.1161 160.907ZM20.4832 77.2998L26.0028 74.9473L24.334 71.0317L20.0869 71.3129L20.4832 77.2998ZM16.6031 82.0812L11.8945 78.3623L11.8879 78.3707L16.6031 82.0812ZM14.5433 84.6437L14.9396 90.6306L17.4194 90.4664L19.0569 88.5968L14.5433 84.6437ZM13.0517 81.9228L7.57883 84.3821L7.60376 84.4376L7.62981 84.4926L13.0517 81.9228ZM9.66472 74.3439L4.14623 76.6989L4.16476 76.7424L4.18398 76.7855L9.66472 74.3439ZM4.94747 63.5088L10.4343 61.0808L10.4271 61.0645L10.4198 61.0483L4.94747 63.5088ZM44.8111 71.3614L40.9423 66.7753L37.7802 69.4427L39.149 73.3466L44.8111 71.3614ZM51.4396 90.2666L45.7775 92.2518L49.2108 102.044L55.9847 94.1835L51.4396 90.2666ZM64.9342 66.2916L64.0224 72.2219L64.1212 72.2371L64.2204 72.249L64.9342 66.2916ZM3.62442 61.568C8.76147 59.4841 13.5783 57.5534 18.0752 55.7755L13.6633 44.616C9.12898 46.4086 4.27893 48.3527 -0.886446 50.4481L3.62442 61.568ZM18.06 55.7815C22.5012 54.0396 27.1944 52.3619 32.1415 50.7496L28.4229 39.3403C23.271 41.0194 18.3556 42.7756 13.6785 44.61L18.06 55.7815ZM32.1867 50.7346C37.0786 49.0971 41.7491 47.7575 46.2004 46.7093L43.45 35.0288C38.6037 36.1699 33.5789 37.6142 28.3776 39.3552L32.1867 50.7346ZM46.2118 46.7067C49.4479 45.938 52.7956 45.4365 56.2598 45.2072L55.4671 33.2334C51.358 33.5054 47.3469 34.1032 43.4386 35.0315L46.2118 46.7067ZM56.2598 45.2072C62.6828 44.782 66.2841 44.7352 67.6448 44.8852L68.9602 32.9576C66.3576 32.6706 61.6662 32.823 55.4671 33.2334L56.2598 45.2072ZM67.5676 44.8762C70.0655 45.1845 72.4011 45.7873 74.5923 46.673L79.0892 35.5475C75.8903 34.2545 72.5337 33.3981 69.0374 32.9666L67.5676 44.8762ZM74.6282 46.6874C76.6874 47.5043 78.5296 48.6564 80.1826 50.1661L88.2751 41.3055C85.5544 38.8207 82.4711 36.889 79.0533 35.5331L74.6282 46.6874ZM80.2757 50.2494C81.9261 51.6949 83.3488 53.4839 84.5277 55.6796L95.1002 50.0032C93.2873 46.6265 90.9865 43.6785 88.182 41.2222L80.2757 50.2494ZM84.504 55.6351C84.7071 56.021 84.825 56.4259 84.8568 56.9072L96.8306 56.1145C96.6896 53.9843 96.121 51.9429 95.1238 50.0477L84.504 55.6351ZM84.8568 56.9072C85.0475 59.7875 83.6649 64.5936 78.979 71.7866L89.0337 78.3367C94.1097 70.5448 97.2854 62.9837 96.8306 56.1145L84.8568 56.9072ZM78.9662 71.8063C74.2678 79.0806 69.5095 85.4057 64.7006 90.8072L73.6632 98.7866C78.9454 92.8535 84.07 86.0218 89.0464 78.317L78.9662 71.8063ZM64.6844 90.8254C59.6946 96.476 56.0525 100.424 53.6997 102.758L62.1513 111.277C64.8031 108.646 68.6652 104.447 73.6794 98.7684L64.6844 90.8254ZM52.277 109.041L66.7558 149.459L78.0529 145.412L63.574 104.994L52.277 109.041ZM68.5804 142.812L52.2921 156.283L59.9401 165.53L76.2284 152.059L68.5804 142.812ZM61.6357 158.554L26.0028 74.9473L14.9636 79.6522L50.5965 163.259L61.6357 158.554ZM20.0869 71.3129C18.9956 71.3851 18.1951 71.7382 17.8521 71.904C17.4483 72.0992 17.1451 72.3011 16.9701 72.425C16.622 72.6714 16.3657 72.9069 16.2433 73.0224C15.9782 73.2726 15.7544 73.5221 15.6147 73.6816C15.3102 74.0293 14.9609 74.4629 14.5989 74.9257L24.0508 82.319C24.374 81.9058 24.5604 81.681 24.642 81.5878C24.6953 81.5269 24.6272 81.6103 24.4804 81.7489C24.4171 81.8086 24.2107 82.0019 23.903 82.2196C23.7482 82.3292 23.4629 82.5202 23.0747 82.7079C22.7473 82.8662 21.96 83.2151 20.8796 83.2867L20.0869 71.3129ZM14.5989 74.9257C13.922 75.7911 13.0212 76.9358 11.8945 78.3623L21.3116 85.8C22.4437 84.3667 23.3574 83.2055 24.0508 82.319L14.5989 74.9257ZM11.8879 78.3707C10.7615 79.8022 10.1863 80.5117 10.0296 80.6906L19.0569 88.5968C19.4692 88.126 20.2673 87.1272 21.3182 85.7916L11.8879 78.3707ZM14.1469 78.6568C15.8742 78.5425 17.1179 79.1996 17.6007 79.4892C18.1578 79.8233 18.5302 80.1734 18.7008 80.3425C19.0501 80.6887 19.2564 80.9869 19.2947 81.0416C19.4053 81.2 19.4278 81.2574 19.3337 81.0858C19.1723 80.7913 18.8927 80.2376 18.4735 79.3531L7.62981 84.4926C8.07441 85.4306 8.47534 86.2417 8.81113 86.8542C8.96561 87.136 9.19089 87.5325 9.45848 87.9154C9.5752 88.0825 9.84857 88.4643 10.2534 88.8655C10.4518 89.0622 10.8491 89.4327 11.4282 89.78C11.9331 90.0828 13.196 90.746 14.9396 90.6306L14.1469 78.6568ZM18.5245 79.4635C17.7081 77.6468 16.5822 75.1273 15.1455 71.9023L4.18398 76.7855C5.62262 80.0148 6.75463 82.548 7.57883 84.3821L18.5245 79.4635ZM15.1832 71.9888C13.7739 68.6864 12.1906 65.05 10.4343 61.0808L-0.539342 65.9367C1.19991 69.8672 2.76151 73.4542 4.14623 76.6989L15.1832 71.9888ZM10.4198 61.0483C8.66885 57.1541 7.33563 54.3236 6.54658 52.9762L-3.8086 59.04C-3.41476 59.7126 -2.36232 61.8825 -0.524823 65.9693L10.4198 61.0483ZM39.149 73.3466L45.7775 92.2518L57.1017 88.2814L50.4731 69.3762L39.149 73.3466ZM55.9847 94.1835C58.6428 91.0991 61.8479 86.998 65.5811 81.9303L55.9196 74.813C52.2725 79.7639 49.2704 83.5928 46.8945 86.3497L55.9847 94.1835ZM65.5811 81.9303C67.5317 79.2824 69.1194 76.8254 70.222 74.6065C71.2365 72.5651 72.2392 69.9578 72.0608 67.2624L60.087 68.0551C60.0497 67.4924 60.2358 67.7369 59.4757 69.2665C58.8038 70.6185 57.6592 72.4516 55.9196 74.813L65.5811 81.9303ZM72.0608 67.2624C71.982 66.0723 71.6242 64.3754 70.3566 62.8549C68.9985 61.2257 67.2034 60.5205 65.6479 60.3342L64.2204 72.249C63.3701 72.1471 62.1174 71.712 61.1392 70.5386C60.2515 69.4737 60.111 68.4182 60.087 68.0551L72.0608 67.2624ZM65.846 60.3613C63.4465 59.9923 61.0563 59.8794 58.6841 60.0365L59.4768 72.0103C60.9348 71.9137 62.4471 71.9797 64.0224 72.2219L65.846 60.3613ZM58.6841 60.0365C51.8838 60.4867 45.8459 62.6387 40.9423 66.7753L48.6798 75.9475C51.3116 73.7274 54.7867 72.3208 59.4768 72.0103L58.6841 60.0365ZM141.637 79.902L139.123 85.3499L139.143 85.3587L139.162 85.3674L141.637 79.902ZM149.591 86.1295L144.855 89.8137L144.888 89.8558L144.921 89.8972L149.591 86.1295ZM154.461 95.3151L148.744 97.1351L148.757 97.1769L148.771 97.2185L154.461 95.3151ZM156.371 115.254L150.408 114.589L150.403 114.632L150.399 114.675L156.371 115.254ZM152.221 129.824L147.073 126.742L147.05 126.781L147.027 126.82L152.221 129.824ZM134.986 148.8L138.205 153.864L138.231 153.847L138.257 153.83L134.986 148.8ZM125.517 153.362L123.645 147.661L123.599 147.676L123.553 147.692L125.517 153.362ZM105.444 154.232L107.051 148.451L107.029 148.445L107.007 148.439L105.444 154.232ZM96.6585 150.289L93.1356 155.145L93.187 155.183L93.2392 155.219L96.6585 150.289ZM86.7235 137.897L81.305 140.474L81.3085 140.481L81.3121 140.489L86.7235 137.897ZM89.7031 94.7498L94.3384 98.5595L94.3428 98.5541L89.7031 94.7498ZM104.938 81.2168L107.986 86.3848L108.003 86.3753L108.019 86.3656L104.938 81.2168ZM131.511 76.5068L130.291 82.3814L130.329 82.3893L130.367 82.3967L131.511 76.5068ZM138.512 91.1252L144.159 89.0993L132.583 90.2051L138.512 91.1252ZM134.26 100.193L129.712 96.2797L129.694 96.2998L129.677 96.3201L134.26 100.193ZM124.134 103.749L120.704 108.672L120.918 108.82L121.143 108.95L124.134 103.749ZM123.378 92.3237L118.223 89.2537L118.2 89.293L118.177 89.3326L123.378 92.3237ZM129.404 87.2691L131.967 92.6941L129.008 81.2822L129.404 87.2691ZM121.155 89.4545L118.549 84.0503L118.534 84.0577L118.518 84.0651L121.155 89.4545ZM114.581 94.152L118.849 98.3694L118.876 98.3425L118.902 98.3153L114.581 94.152ZM110.331 100.269L104.874 97.7735L104.865 97.7934L104.856 97.8133L110.331 100.269ZM115.315 116.136L112.424 121.393L112.431 121.397L115.315 116.136ZM133.482 115.196L137.673 119.489L137.695 119.468L137.718 119.446L133.482 115.196ZM138.439 106.867L144.158 108.683L144.162 108.67L144.166 108.657L138.439 106.867ZM139.162 85.3674C141.499 86.426 143.366 87.9001 144.855 89.8137L154.326 82.4452C151.61 78.9542 148.176 76.2767 144.113 74.4365L139.162 85.3674ZM144.921 89.8972C146.567 91.9368 147.85 94.3283 148.744 97.1351L160.178 93.4952C158.864 89.3662 156.9 85.6339 154.26 82.3617L144.921 89.8972ZM148.771 97.2185C149.744 100.128 150.348 103.223 150.567 106.524L162.541 105.731C162.258 101.458 161.467 97.3454 160.151 93.4117L148.771 97.2185ZM150.567 106.524C150.752 109.324 150.696 112.01 150.408 114.589L162.334 115.919C162.705 112.596 162.77 109.198 162.541 105.731L150.567 106.524ZM150.399 114.675C150.143 117.313 149.705 119.675 149.107 121.778L160.65 125.059C161.471 122.172 162.027 119.09 162.343 115.833L150.399 114.675ZM149.107 121.778C148.507 123.889 147.808 125.515 147.073 126.742L157.369 132.906C158.76 130.582 159.832 127.938 160.65 125.059L149.107 121.778ZM147.027 126.82C144.749 130.759 142.303 134.107 139.709 136.903L148.506 145.064C151.788 141.526 154.751 137.434 157.415 132.828L147.027 126.82ZM139.709 136.903C137.057 139.762 134.387 142.032 131.715 143.771L138.257 153.83C141.871 151.48 145.283 148.539 148.506 145.064L139.709 136.903ZM131.766 143.737C128.992 145.502 126.285 146.794 123.645 147.661L127.39 159.062C131.082 157.849 134.687 156.1 138.205 153.864L131.766 143.737ZM123.553 147.692C120.914 148.607 118.313 149.137 115.741 149.307L116.534 161.281C120.228 161.036 123.882 160.278 127.481 159.031L123.553 147.692ZM115.741 149.307C112.687 149.509 109.802 149.215 107.051 148.451L103.837 160.012C107.944 161.154 112.188 161.569 116.534 161.281L115.741 149.307ZM107.007 148.439C104.181 147.676 101.903 146.624 100.078 145.358L93.2392 155.219C96.3623 157.385 99.9412 158.961 103.881 160.024L107.007 148.439ZM100.181 145.432C97.0256 143.143 94.3109 139.849 92.135 135.306L81.3121 140.489C84.209 146.538 88.1176 151.506 93.1356 155.145L100.181 145.432ZM92.1421 135.321C89.939 130.687 88.6514 125.713 88.2964 120.351L76.3226 121.143C76.7744 127.968 78.4296 134.427 81.305 140.474L92.1421 135.321ZM88.2964 120.351C87.6828 111.081 89.861 104.007 94.3384 98.5595L85.0678 90.9401C78.2983 99.1766 75.5475 109.434 76.3226 121.143L88.2964 120.351ZM94.3428 98.5541C98.8065 93.1103 103.368 89.1087 107.986 86.3848L101.89 76.0488C95.8217 79.6279 90.2267 84.6483 85.0634 90.9455L94.3428 98.5541ZM108.019 86.3656C112.604 83.6223 117.256 82.1522 122.028 81.8363L121.235 69.8625C114.43 70.313 107.953 72.4212 101.858 76.0679L108.019 86.3656ZM122.028 81.8363C124.905 81.6458 127.654 81.8335 130.291 82.3814L132.732 70.6323C128.986 69.8541 125.148 69.6035 121.235 69.8625L122.028 81.8363ZM130.367 82.3967C132.997 82.9077 135.911 83.8675 139.123 85.3499L144.152 74.4541C140.239 72.6486 136.402 71.345 132.656 70.617L130.367 82.3967ZM132.583 90.2051C132.241 92.4044 131.329 94.401 129.712 96.2797L138.807 104.107C141.818 100.609 143.74 96.5596 144.441 92.0453L132.583 90.2051ZM129.677 96.3201C127.942 98.3728 127.005 98.4638 126.932 98.4686L127.725 110.442C132.354 110.136 136.037 107.386 138.842 104.067L129.677 96.3201ZM126.932 98.4686C126.867 98.4729 126.879 98.4644 126.945 98.4788C126.975 98.4855 127.009 98.4955 127.044 98.509C127.078 98.5224 127.106 98.5364 127.126 98.5477L121.143 108.95C123.197 110.131 125.455 110.593 127.725 110.442L126.932 98.4686ZM127.565 98.8264C127.73 98.9411 127.855 99.0673 127.939 99.1752C128.02 99.2787 128.041 99.3356 128.028 99.3049C127.991 99.2194 127.855 98.8394 127.8 97.9982L115.826 98.7908C116.051 102.191 117.154 106.197 120.704 108.672L127.565 98.8264ZM127.8 97.9982C127.758 97.3737 127.888 96.5174 128.579 95.3149L118.177 89.3326C116.516 92.2202 115.602 95.4111 115.826 98.7908L127.8 97.9982ZM128.533 95.3938C128.984 94.6369 129.93 93.6567 131.967 92.6941L126.841 81.8442C123.283 83.5252 120.212 85.9147 118.223 89.2537L128.533 95.3938ZM129.008 81.2822C125.358 81.5239 121.859 82.4539 118.549 84.0503L123.762 94.8588C125.705 93.9217 127.705 93.3948 129.8 93.256L129.008 81.2822ZM118.518 84.0651C115.375 85.6032 112.596 87.5655 110.261 89.9887L118.902 98.3153C120.166 97.003 121.77 95.8336 123.793 94.8439L118.518 84.0651ZM110.313 89.9346C108.034 92.2411 106.208 94.8583 104.874 97.7735L115.787 102.765C116.515 101.172 117.523 99.7114 118.849 98.3694L110.313 89.9346ZM104.856 97.8133C103.509 100.816 102.858 103.983 103.074 107.241L115.048 106.449C114.975 105.354 115.171 104.138 115.805 102.725L104.856 97.8133ZM103.074 107.241C103.492 113.558 106.937 118.375 112.424 121.393L118.207 110.879C115.89 109.604 115.166 108.228 115.048 106.449L103.074 107.241ZM112.431 121.397C116.75 123.765 121.272 125.099 125.856 124.795L125.063 112.822C123.379 112.933 121.138 112.485 118.199 110.875L112.431 121.397ZM125.856 124.795C130.401 124.495 134.413 122.671 137.673 119.489L129.292 110.902C128.035 112.128 126.698 112.713 125.063 112.822L125.856 124.795ZM137.718 119.446C140.715 116.458 142.844 112.823 144.158 108.683L132.72 105.052C131.937 107.521 130.76 109.437 129.247 110.945L137.718 119.446ZM144.166 108.657C145.41 104.674 145.944 100.67 145.68 96.6833L133.706 97.476C133.863 99.8435 133.56 102.365 132.712 105.078L144.166 108.657ZM145.68 96.6833C145.504 94.0295 145.016 91.487 144.159 89.0993L132.864 93.151C133.294 94.3503 133.593 95.7774 133.706 97.476L145.68 96.6833ZM141.381 41.3621L138.701 35.9941L135.847 37.419L135.432 40.5813L141.381 41.3621ZM173.626 25.2604L179.613 24.864L179.017 15.8619L170.946 19.8924L173.626 25.2604ZM175.044 46.6744L169.057 47.0708L170.057 62.172L179.676 50.488L175.044 46.6744ZM191.431 26.7702L194.962 21.9192L190.392 18.5925L186.799 22.9566L191.431 26.7702ZM215.13 44.0207L220.284 47.0932L223.087 42.3913L218.661 39.1697L215.13 44.0207ZM186.151 92.627L180.998 89.5545L178.08 94.449L182.817 97.6154L186.151 92.627ZM256.407 139.582L262.359 138.829L262.016 136.114L259.741 134.593L256.407 139.582ZM259.707 165.658L257.197 171.108L267.016 175.63L265.659 164.905L259.707 165.658ZM189.366 133.266L191.876 127.816L182.159 123.341L183.407 133.966L189.366 133.266ZM193.121 165.214L193.63 171.192L199.803 170.666L199.08 164.514L193.121 165.214ZM162.083 167.859L156.125 168.564L156.808 174.33L162.593 173.837L162.083 167.859ZM148.7 54.8446L154.658 54.139L153.822 47.0774L147.002 49.0899L148.7 54.8446ZM139.245 57.6344L133.296 56.8536L132.096 65.9998L140.943 63.3891L139.245 57.6344ZM144.062 46.73L176.307 30.6283L170.946 19.8924L138.701 35.9941L144.062 46.73ZM167.639 25.6567L169.057 47.0708L181.031 46.2781L179.613 24.864L167.639 25.6567ZM179.676 50.488L196.063 30.5838L186.799 22.9566L170.412 42.8609L179.676 50.488ZM187.9 31.6212L211.599 48.8717L218.661 39.1697L194.962 21.9192L187.9 31.6212ZM209.976 40.9482L180.998 89.5545L191.305 95.6995L220.284 47.0932L209.976 40.9482ZM182.817 97.6154L253.073 144.57L259.741 134.593L189.485 87.6386L182.817 97.6154ZM250.454 140.335L253.754 166.411L265.659 164.905L262.359 138.829L250.454 140.335ZM262.216 160.208L191.876 127.816L186.857 138.716L257.197 171.108L262.216 160.208ZM183.407 133.966L187.162 165.914L199.08 164.514L195.325 132.566L183.407 133.966ZM192.611 159.236L161.574 161.88L162.593 173.837L193.63 171.192L192.611 159.236ZM168.041 167.153L154.658 54.139L142.741 55.5502L156.125 168.564L168.041 167.153ZM147.002 49.0899L137.547 51.8797L140.943 63.3891L150.398 60.5993L147.002 49.0899ZM145.194 58.4152L147.33 42.1429L135.432 40.5813L133.296 56.8536L145.194 58.4152ZM285.274 105.147L289.632 101.023L283.647 94.6972L279.868 102.543L285.274 105.147ZM302.266 123.104L308.054 124.683L308.942 121.429L306.624 118.98L302.266 123.104ZM293.922 133.754L290.353 128.931L290.343 128.938L290.333 128.946L293.922 133.754ZM277.553 142.051L275.628 136.368L275.605 136.376L275.583 136.384L277.553 142.051ZM242.716 144.75L241.165 150.547L241.174 150.549L241.182 150.551L242.716 144.75ZM231.877 138.517L236.333 134.498L236.325 134.49L236.317 134.481L231.877 138.517ZM226.447 99.0741L220.704 97.3344L220.701 97.3452L220.698 97.3561L226.447 99.0741ZM233.138 85.2542L228.738 81.1755L228.732 81.182L228.726 81.1886L233.138 85.2542ZM242.956 77.0633L239.783 71.9711L239.771 71.9788L239.758 71.9867L242.956 77.0633ZM254.279 71.7892L252.443 66.0772L254.279 71.7892ZM282.43 71.1059L280.777 76.8736L280.808 76.8823L280.838 76.8907L282.43 71.1059ZM296.059 77.8757L300.902 81.4177L304.33 76.7304L299.757 73.151L296.059 77.8757ZM263.047 123.011L258.204 119.469L250.614 129.848L263.444 128.998L263.047 123.011ZM271.927 120.456L274.796 125.726L274.814 125.716L274.831 125.707L271.927 120.456ZM279.451 114.253L284 118.166L284.017 118.146L284.034 118.125L279.451 114.253ZM266.183 91.1321L271.089 94.5861L275.347 88.538L268.55 85.619L266.183 91.1321ZM252.786 91.8222L250.051 86.482L250.031 86.4919L250.012 86.502L252.786 91.8222ZM248.375 95.524L253.35 98.8781L253.432 98.7573L253.507 98.6326L248.375 95.524ZM245.835 111.626L240.071 113.293L245.835 111.626ZM247.782 117.268L242.168 119.386L246.167 129.984L252.688 120.722L247.782 117.268ZM229.509 46.2818L226.263 41.2357L220.888 44.6929L224.677 49.8391L229.509 46.2818ZM263.032 24.7186L267.834 21.1216L264.485 16.6499L259.786 19.6724L263.032 24.7186ZM279.504 46.7098L281.011 52.5173L289.667 50.2704L284.306 43.1128L279.504 46.7098ZM237.795 57.5364L232.963 61.0937L235.371 64.3644L239.302 63.344L237.795 57.5364ZM280.916 109.271L297.908 127.227L306.624 118.98L289.632 101.023L280.916 109.271ZM296.477 121.524C295.942 123.487 294.292 126.017 290.353 128.931L297.491 138.577C302.637 134.77 306.549 130.2 308.054 124.683L296.477 121.524ZM290.333 128.946C286.431 131.858 281.563 134.357 275.628 136.368L279.479 147.733C286.37 145.398 292.415 142.366 297.511 138.562L290.333 128.946ZM275.583 136.384C269.705 138.427 263.808 139.636 257.879 140.029L258.671 152.002C265.713 151.536 272.668 150.102 279.524 147.718L275.583 136.384ZM257.879 140.029C252.655 140.374 248.136 139.977 244.25 138.95L241.182 150.551C246.551 151.971 252.405 152.417 258.671 152.002L257.879 140.029ZM244.267 138.954C240.573 137.966 238.053 136.406 236.333 134.498L227.422 142.536C230.986 146.486 235.692 149.082 241.165 150.547L244.267 138.954ZM236.317 134.481C232.843 130.659 230.661 125.393 230.183 118.171L218.209 118.963C218.826 128.281 221.766 136.314 227.438 142.553L236.317 134.481ZM230.183 118.171C229.8 112.378 230.461 106.596 232.195 100.792L220.698 97.3561C218.567 104.486 217.728 111.699 218.209 118.963L230.183 118.171ZM232.189 100.814C234.087 94.5492 235.999 91.0039 237.551 89.3198L228.726 81.1886C225.301 84.9049 222.753 90.5728 220.704 97.3344L232.189 100.814ZM237.539 89.3328C240.176 86.4878 243.047 84.0974 246.154 82.14L239.758 71.9867C235.732 74.5233 232.058 77.5935 228.738 81.1755L237.539 89.3328ZM246.13 82.1555C249.334 80.1589 252.66 78.6122 256.116 77.5012L252.443 66.0772C248.022 67.4985 243.8 69.4679 239.783 71.9711L246.13 82.1555ZM256.116 77.5012C259.576 76.3886 263.172 75.7055 266.915 75.4576L266.123 63.4838C261.423 63.795 256.858 64.6575 252.443 66.0772L256.116 77.5012ZM266.915 75.4576C271.786 75.1352 276.394 75.6174 280.777 76.8736L284.084 65.3381C278.306 63.6823 272.307 63.0744 266.123 63.4838L266.915 75.4576ZM280.838 76.8907C285.236 78.1014 289.054 80.0125 292.36 82.6004L299.757 73.151C295.133 69.5317 289.866 66.9296 284.023 65.3211L280.838 76.8907ZM291.216 74.3337L258.204 119.469L267.89 126.553L300.902 81.4177L291.216 74.3337ZM263.444 128.998C267.47 128.732 271.275 127.643 274.796 125.726L269.058 115.187C267.094 116.256 264.979 116.87 262.651 117.024L263.444 128.998ZM274.831 125.707C278.284 123.797 281.338 121.26 284 118.166L274.902 110.341C273.098 112.438 271.137 114.037 269.023 115.206L274.831 125.707ZM284.034 118.125C286.622 115.062 288.83 111.591 290.68 107.75L279.868 102.543C278.413 105.565 276.739 108.166 274.867 110.381L284.034 118.125ZM268.55 85.619C265.545 84.3281 262.388 83.7308 259.15 83.9452L259.942 95.919C261.143 95.8395 262.411 96.0422 263.815 96.6451L268.55 85.619ZM259.15 83.9452C255.96 84.1564 252.913 85.0158 250.051 86.482L255.521 97.1625C256.971 96.4197 258.431 96.019 259.942 95.919L259.15 83.9452ZM250.012 86.502C247.372 87.8786 244.854 89.7571 243.243 92.4155L253.507 98.6326C253.552 98.5585 253.974 97.9691 255.56 97.1425L250.012 86.502ZM243.4 92.1699C240.232 96.8696 238.732 102.097 239.101 107.679L251.075 106.886C250.891 104.111 251.583 101.5 253.35 98.8781L243.4 92.1699ZM239.101 107.679C239.229 109.603 239.546 111.479 240.071 113.293L251.599 109.96C251.329 109.029 251.149 108.008 251.075 106.886L239.101 107.679ZM240.071 113.293C240.533 114.892 241.247 116.945 242.168 119.386L253.396 115.15C252.514 112.814 251.93 111.106 251.599 109.96L240.071 113.293ZM252.688 120.722L271.089 94.5861L261.277 87.678L242.876 113.814L252.688 120.722ZM232.755 51.328L266.278 29.7648L259.786 19.6724L226.263 41.2357L232.755 51.328ZM258.23 28.3156L274.702 50.3068L284.306 43.1128L267.834 21.1216L258.23 28.3156ZM277.996 40.9022L236.287 51.7289L239.302 63.344L281.011 52.5173L277.996 40.9022ZM242.627 53.9792L234.341 42.7246L224.677 49.8391L232.963 61.0937L242.627 53.9792ZM345.667 47.7066L344.067 53.4892L344.08 53.4929L344.093 53.4965L345.667 47.7066ZM328.566 49.8879L324.764 45.2466L322.212 47.3372L322.61 50.6121L328.566 49.8879ZM335.764 109.083L329.807 109.807L330.846 118.348L338.501 114.422L335.764 109.083ZM349.831 98.709L344.891 95.3037L344.884 95.3126L349.831 98.709ZM353.821 90.6417L348.207 88.5251L348.019 89.0223L347.922 89.5446L353.821 90.6417ZM354.656 83.439L348.666 83.0812L348.664 83.1151L348.663 83.1491L354.656 83.439ZM351.805 55.2346L346.093 57.0712L346.104 57.105L346.115 57.1387L351.805 55.2346ZM370.547 34.2564L365.34 37.2366L365.354 37.2626L365.369 37.2884L370.547 34.2564ZM376.482 46.6502L370.875 48.7858L370.888 48.8192L370.901 48.8524L376.482 46.6502ZM380.35 59.5088L374.476 60.7314L374.482 60.7601L374.488 60.7888L380.35 59.5088ZM380.556 94.3144L374.7 93.0073L374.696 93.0242L374.692 93.041L380.556 94.3144ZM373.113 113.627L378.265 116.702L378.27 116.693L378.276 116.683L373.113 113.627ZM360.224 127.922L356.672 123.086L356.664 123.092L356.655 123.099L360.224 127.922ZM342.819 135.435L341.713 129.538L341.547 129.569L341.383 129.609L342.819 135.435ZM315.915 142.069L310.006 143.11L311.12 149.43L317.351 147.894L315.915 142.069ZM301.216 58.7148L307.125 57.6729L306.191 52.3724L300.82 52.7279L301.216 58.7148ZM295.276 66.0588L292.231 71.2286L293.826 72.1679L295.673 72.0457L295.276 66.0588ZM292.363 60.678L286.615 62.3984L286.626 62.4373L286.639 62.476L292.363 60.678ZM288.352 46.6486L282.563 48.2264L282.568 48.2452L282.574 48.2639L288.352 46.6486ZM284.636 35.0915L282.411 29.5196L276.098 32.041L279.384 37.9914L284.636 35.0915ZM312.513 25.3117L314.217 31.0647L314.23 31.0608L314.243 31.0567L312.513 25.3117ZM347.268 41.9241C343.353 40.8403 339.668 40.1891 336.528 40.3969L337.32 52.3707C338.446 52.2962 340.59 52.5268 344.067 53.4892L347.268 41.9241ZM336.528 40.3969C332.152 40.6866 328.204 42.428 324.764 45.2466L332.368 54.5293C334.153 53.0676 335.777 52.4729 337.32 52.3707L336.528 40.3969ZM322.61 50.6121L329.807 109.807L341.72 108.359L334.522 49.1637L322.61 50.6121ZM338.501 114.422C345.794 110.682 351.647 106.663 354.777 102.105L344.884 95.3126C343.548 97.2585 340.024 100.155 333.026 103.744L338.501 114.422ZM354.771 102.114C357.171 98.6327 359.096 95.0934 359.72 91.7387L347.922 89.5446C347.772 90.3505 347.037 92.1894 344.891 95.3037L354.771 102.114ZM359.435 92.7583C359.905 91.5128 360.127 90.0173 360.269 88.7919C360.429 87.405 360.553 85.7034 360.649 83.7289L348.663 83.1491C348.574 84.99 348.466 86.3965 348.349 87.4106C348.29 87.9168 348.235 88.273 348.19 88.5058C348.138 88.7759 348.128 88.7351 348.207 88.5251L359.435 92.7583ZM360.645 83.7968C360.891 79.6798 360.844 75.1852 360.522 70.3295L348.549 71.1221C348.844 75.5806 348.877 79.5615 348.666 83.0812L360.645 83.7968ZM360.522 70.3295C360.096 63.8967 359.122 58.1938 357.495 53.3306L346.115 57.1387C347.321 60.7435 348.168 65.368 348.549 71.1221L360.522 70.3295ZM357.517 53.3981C355.904 48.3811 352.88 43.4496 347.241 41.9168L344.093 53.4965C344.112 53.5016 344.141 53.5104 344.198 53.5492C344.261 53.5925 344.397 53.6995 344.588 53.9337C344.993 54.4308 345.551 55.3859 346.093 57.0712L357.517 53.3981ZM365.369 37.2884C367.517 40.9563 369.352 44.7877 370.875 48.7858L382.089 44.5147C380.332 39.8995 378.21 35.4683 375.725 31.2245L365.369 37.2884ZM370.901 48.8524C372.462 52.8076 373.651 56.7665 374.476 60.7314L386.224 58.2862C385.254 53.6268 383.865 49.0133 382.064 44.4481L370.901 48.8524ZM374.488 60.7888C375.368 64.8193 375.935 68.7895 376.194 72.7018L388.167 71.9091C387.868 67.3777 387.214 62.8167 386.212 58.2287L374.488 60.7888ZM376.194 72.7018C376.659 79.7288 376.154 86.4904 374.7 93.0073L386.412 95.6214C388.126 87.9396 388.705 80.0286 388.167 71.9091L376.194 72.7018ZM374.692 93.041C373.277 99.5605 371.018 105.388 367.95 110.57L378.276 116.683C382.05 110.308 384.753 103.261 386.419 95.5877L374.692 93.041ZM367.961 110.551C364.931 115.627 361.169 119.784 356.672 123.086L363.775 132.759C369.617 128.469 374.448 123.096 378.265 116.702L367.961 110.551ZM356.655 123.099C352.282 126.334 347.329 128.484 341.713 129.538L343.926 141.332C351.264 139.955 357.913 137.096 363.792 132.745L356.655 123.099ZM341.383 129.609L314.478 136.243L317.351 147.894L344.256 141.261L341.383 129.609ZM321.824 141.027L307.125 57.6729L295.308 59.7568L310.006 143.11L321.824 141.027ZM300.82 52.7279C299.147 52.8387 298.002 53.6107 297.714 53.8049C297.257 54.1133 296.909 54.4302 296.702 54.6295C296.274 55.0408 295.887 55.4955 295.58 55.8747C294.94 56.6661 294.172 57.7278 293.308 58.9791L303.185 65.7945C303.997 64.618 304.561 63.8538 304.91 63.4212C305.099 63.1884 305.121 63.1816 305.017 63.2818C304.971 63.3256 304.764 63.5246 304.426 63.7528C304.251 63.8707 303.955 64.0554 303.555 64.2303C303.176 64.396 302.5 64.643 301.613 64.7017L300.82 52.7279ZM293.308 58.9791C292.496 60.1556 291.932 60.9198 291.582 61.3524C291.394 61.5852 291.372 61.592 291.476 61.4918C291.521 61.448 291.729 61.249 292.067 61.0208C292.242 60.9029 292.538 60.7182 292.938 60.5433C293.317 60.3776 293.993 60.1306 294.88 60.0719L295.673 72.0457C297.346 71.9349 298.491 71.1629 298.778 70.9687C299.235 70.6603 299.583 70.3434 299.791 70.1441C300.219 69.7328 300.606 69.2781 300.912 68.8989C301.553 68.1075 302.321 67.0458 303.185 65.7945L293.308 58.9791ZM298.322 60.889C298.833 61.1904 299.095 61.4944 299.154 61.5658C299.22 61.6462 299.186 61.6213 299.074 61.4146C298.841 60.9849 298.497 60.186 298.087 58.8799L286.639 62.476C287.17 64.1677 287.783 65.7645 288.521 67.1284C289.185 68.3535 290.321 70.1036 292.231 71.2286L298.322 60.889ZM298.111 58.9576C297.229 56.0123 295.905 51.3799 294.131 45.0333L282.574 48.2639C284.351 54.6218 285.7 59.3424 286.615 62.3984L298.111 58.9576ZM294.141 45.0708C293.264 41.8528 292.495 39.2043 291.836 37.1564C291.229 35.2685 290.579 33.4423 289.889 32.1915L279.384 37.9914C279.367 37.9622 279.468 38.1498 279.681 38.7108C279.879 39.2281 280.122 39.9268 280.412 40.8295C280.992 42.6339 281.708 45.0892 282.563 48.2264L294.141 45.0708ZM286.862 40.6633C296.555 36.7912 305.672 33.5948 314.217 31.0647L310.81 19.5586C301.861 22.2084 292.393 25.5319 282.411 29.5196L286.862 40.6633ZM314.243 31.0567C322.632 28.5302 330.383 27.0598 337.515 26.5877L336.723 14.6139C328.534 15.156 319.881 16.8262 310.783 19.5666L314.243 31.0567ZM337.515 26.5877C352.744 25.5795 361.094 29.8184 365.34 37.2366L375.755 31.2763C368.334 18.3086 354.398 13.4437 336.723 14.6139L337.515 26.5877ZM439.09 94.9639L443.448 90.8399L437.462 84.5144L433.684 92.3607L439.09 94.9639ZM456.082 112.921L461.87 114.5L462.758 111.246L460.44 108.797L456.082 112.921ZM447.738 123.571L444.169 118.748L444.159 118.755L444.149 118.763L447.738 123.571ZM431.369 131.868L429.443 126.185L429.421 126.193L429.399 126.201L431.369 131.868ZM396.532 134.568L394.981 140.364L394.989 140.366L394.998 140.368L396.532 134.568ZM385.693 128.334L390.148 124.316L390.14 124.307L390.133 124.298L385.693 128.334ZM380.262 88.8912L374.52 87.1516L374.517 87.1624L374.513 87.1732L380.262 88.8912ZM386.954 75.0714L382.553 70.9927L382.547 70.9992L382.541 71.0058L386.954 75.0714ZM396.772 66.8805L393.599 61.7883L393.586 61.796L393.574 61.8038L396.772 66.8805ZM408.095 61.6064L406.258 55.8944L408.095 61.6064ZM436.246 60.9231L434.593 66.6908L434.623 66.6995L434.654 66.7079L436.246 60.9231ZM449.874 67.6929L454.717 71.2349L458.145 66.5476L453.573 62.9682L449.874 67.6929ZM416.863 112.829L412.02 109.286L404.429 119.665L417.259 118.815L416.863 112.829ZM425.743 110.273L428.611 115.543L428.629 115.534L428.647 115.524L425.743 110.273ZM433.266 104.071L437.816 107.983L437.833 107.963L437.85 107.942L433.266 104.071ZM419.998 80.9492L424.904 84.4033L429.162 78.3552L422.366 75.4362L419.998 80.9492ZM406.601 81.6394L403.866 76.2992L403.847 76.3091L403.828 76.3191L406.601 81.6394ZM402.191 85.3412L407.166 88.6953L407.247 88.5745L407.323 88.4498L402.191 85.3412ZM399.65 101.444L393.886 103.11L399.65 101.444ZM401.598 107.085L395.984 109.203L399.983 119.801L406.504 110.539L401.598 107.085ZM434.732 99.0878L451.723 117.045L460.44 108.797L443.448 90.8399L434.732 99.0878ZM450.293 111.342C449.758 113.304 448.108 115.834 444.169 118.748L451.306 128.395C456.453 124.587 460.365 120.017 461.87 114.5L450.293 111.342ZM444.149 118.763C440.247 121.675 435.379 124.174 429.443 126.185L433.295 137.551C440.186 135.215 446.231 132.183 451.326 128.38L444.149 118.763ZM429.399 126.201C423.521 128.245 417.623 129.453 411.694 129.846L412.487 141.82C419.529 141.353 426.483 139.919 433.34 137.535L429.399 126.201ZM411.694 129.846C406.471 130.192 401.951 129.795 398.066 128.767L394.998 140.368C400.367 141.788 406.22 142.234 412.487 141.82L411.694 129.846ZM398.083 128.772C394.389 127.783 391.869 126.223 390.148 124.316L381.238 132.353C384.801 136.304 389.507 138.899 394.981 140.364L398.083 128.772ZM390.133 124.298C386.658 120.477 384.477 115.21 383.999 107.988L372.025 108.781C372.642 118.098 375.581 126.131 381.254 132.371L390.133 124.298ZM383.999 107.988C383.615 102.195 384.277 96.4129 386.011 90.6092L374.513 87.1732C372.383 94.3029 371.544 101.516 372.025 108.781L383.999 107.988ZM386.005 90.6309C387.902 84.3664 389.815 80.8211 391.366 79.137L382.541 71.0058C379.117 74.7221 376.568 80.39 374.52 87.1516L386.005 90.6309ZM391.354 79.15C393.991 76.305 396.863 73.9146 399.97 71.9572L393.574 61.8038C389.547 64.3405 385.873 67.4106 382.553 70.9927L391.354 79.15ZM399.945 71.9727C403.149 69.9761 406.476 68.4294 409.931 67.3184L406.258 55.8944C401.838 57.3157 397.616 59.2851 393.599 61.7883L399.945 71.9727ZM409.931 67.3184C413.392 66.2058 416.987 65.5226 420.731 65.2748L419.938 53.301C415.238 53.6122 410.674 54.4746 406.258 55.8944L409.931 67.3184ZM420.731 65.2748C425.602 64.9524 430.21 65.4346 434.593 66.6908L437.899 55.1553C432.122 53.4995 426.123 52.8916 419.938 53.301L420.731 65.2748ZM434.654 66.7079C439.052 67.9186 442.87 69.8296 446.176 72.4176L453.573 62.9682C448.949 59.3489 443.682 56.7468 437.839 55.1382L434.654 66.7079ZM445.031 64.1508L412.02 109.286L421.706 116.371L454.717 71.2349L445.031 64.1508ZM417.259 118.815C421.285 118.549 425.091 117.46 428.611 115.543L422.874 105.004C420.909 106.073 418.795 106.687 416.467 106.842L417.259 118.815ZM428.647 115.524C432.1 113.614 435.154 111.077 437.816 107.983L428.717 100.158C426.914 102.255 424.953 103.854 422.839 105.023L428.647 115.524ZM437.85 107.942C440.438 104.879 442.646 101.409 444.496 97.567L433.684 92.3607C432.229 95.3826 430.555 97.983 428.683 100.199L437.85 107.942ZM422.366 75.4362C419.36 74.1453 416.204 73.548 412.965 73.7624L413.758 85.7362C414.959 85.6567 416.227 85.8594 417.63 86.4623L422.366 75.4362ZM412.965 73.7624C409.776 73.9735 406.729 74.833 403.866 76.2992L409.337 86.9797C410.787 86.2369 412.247 85.8362 413.758 85.7362L412.965 73.7624ZM403.828 76.3191C401.187 77.6958 398.669 79.5742 397.059 82.2326L407.323 88.4498C407.368 88.3757 407.79 87.7863 409.375 86.9597L403.828 76.3191ZM397.216 81.9871C394.047 86.6868 392.547 91.9146 392.917 97.496L404.891 96.7033C404.707 93.928 405.398 91.3168 407.166 88.6953L397.216 81.9871ZM392.917 97.496C393.044 99.4203 393.362 101.296 393.886 103.11L405.414 99.777C405.145 98.8458 404.965 97.8257 404.891 96.7033L392.917 97.496ZM393.886 103.11C394.349 104.709 395.063 106.762 395.984 109.203L407.211 104.967C406.33 102.631 405.746 100.923 405.414 99.777L393.886 103.11ZM406.504 110.539L424.904 84.4033L415.092 77.4952L396.692 103.631L406.504 110.539ZM493.759 105.574L498.896 102.475L493.238 93.0937L488.381 102.914L493.759 105.574ZM471.493 150.588L472.075 156.56L475.393 156.237L476.871 153.249L471.493 150.588ZM437.874 153.863L432.57 151.059L427.359 160.916L438.456 159.835L437.874 153.863ZM479.366 75.3797L484.671 78.1839L486.374 74.9616L484.3 71.9647L479.366 75.3797ZM436.007 12.7428L436.475 6.76104L423.888 5.77661L431.074 16.1578L436.007 12.7428ZM472.787 15.6193L477.757 12.2577L476.137 9.86297L473.255 9.63755L472.787 15.6193ZM492.994 45.4943L488.024 48.8558L493.865 57.4901L498.397 48.1033L492.994 45.4943ZM508.564 13.2508L507.907 7.28691L504.606 7.65084L503.161 10.6417L508.564 13.2508ZM544.303 9.31108L549.652 12.0305L554.685 2.13024L543.646 3.34721L544.303 9.31108ZM510.594 75.6074L505.246 72.888L503.759 75.813L505.419 78.6433L510.594 75.6074ZM548.734 140.623L547.77 146.545L560.367 148.595L553.909 137.587L548.734 140.623ZM511.215 134.516L506.078 137.615L507.511 139.992L510.252 140.438L511.215 134.516ZM488.381 102.914L466.115 147.928L476.871 153.249L499.137 108.234L488.381 102.914ZM470.911 144.617L437.293 147.891L438.456 159.835L472.075 156.56L470.911 144.617ZM443.179 156.667L484.671 78.1839L474.062 72.5754L432.57 151.059L443.179 156.667ZM484.3 71.9647L440.941 9.32777L431.074 16.1578L474.433 78.7947L484.3 71.9647ZM435.539 18.7245L472.319 21.601L473.255 9.63755L436.475 6.76104L435.539 18.7245ZM467.817 18.9809L488.024 48.8558L497.964 42.1327L477.757 12.2577L467.817 18.9809ZM498.397 48.1033L513.967 15.8599L503.161 10.6417L487.591 42.8852L498.397 48.1033ZM509.222 19.2147L544.961 15.275L543.646 3.34721L507.907 7.28691L509.222 19.2147ZM538.955 6.59167L505.246 72.888L515.943 78.3268L549.652 12.0305L538.955 6.59167ZM505.419 78.6433L543.559 143.659L553.909 137.587L515.769 72.5715L505.419 78.6433ZM549.698 134.701L512.179 128.594L510.252 140.438L547.77 146.545L549.698 134.701ZM516.353 131.417L498.896 102.475L488.621 108.673L506.078 137.615L516.353 131.417Z" fill="#006AB6"/>
</svg>
